<svg width="32" height="32" viewBox="0 0 32 32" fill="none" xmlns="http://www.w3.org/2000/svg">
<g clip-path="url(#clip0_1311_3184)">
<path d="M13.04 8.32877C13.5948 7.84459 14.4371 7.90184 14.9213 8.45664C15.4055 9.01145 15.3483 9.85373 14.7934 10.3379L12.889 12H22.6667C23.4031 12 24.0001 12.597 24.0001 13.3333C24.0001 14.0697 23.4031 14.6667 22.6667 14.6667H9.3334C8.77761 14.6667 8.28011 14.3219 8.08495 13.8015C7.8898 13.2811 8.03794 12.6942 8.45669 12.3288L13.04 8.32877Z" fill="#545454"/>
<path d="M9.33326 17.3333C8.59688 17.3333 7.99995 17.9303 7.99995 18.6667C7.99995 19.403 8.59688 20 9.33326 20L19.111 20L17.2066 21.6621C16.6517 22.1463 16.5945 22.9886 17.0787 23.5434C17.5629 24.0982 18.4052 24.1554 18.96 23.6712L23.5433 19.6712C23.9621 19.3058 24.1102 18.7189 23.915 18.1985C23.7199 17.6781 23.2224 17.3333 22.6666 17.3333L9.33326 17.3333Z" fill="#545454"/>
<path d="M27.3232 7.54163C27.3232 6.80525 26.7263 6.20832 25.9899 6.20831H6.01074C5.27437 6.20832 4.67743 6.80525 4.67743 7.54163V24.4896C4.67743 25.2259 5.27437 25.8229 6.01074 25.8229H25.9899C26.7263 25.8229 27.3232 25.2259 27.3232 24.4896V7.54163ZM29.9899 24.4896C29.9899 26.6987 28.1991 28.4896 25.9899 28.4896H6.01074C3.80161 28.4896 2.01075 26.6987 2.01074 24.4896V7.54163C2.01075 5.33249 3.80161 3.54163 6.01074 3.54163H25.9899C28.1991 3.54163 29.9899 5.33249 29.9899 7.54163V24.4896Z" fill="#545454"/>
</g>
<defs>
<clipPath id="clip0_1311_3184">
<rect width="32" height="32" fill="white"/>
</clipPath>
</defs>
</svg>
