<svg width="32" height="32" viewBox="0 0 32 32" fill="none" xmlns="http://www.w3.org/2000/svg">
<path d="M17.3022 12.13C17.305 11.3936 16.7102 10.7945 15.9738 10.7917C15.2375 10.789 14.6383 11.3838 14.6356 12.1201L15.9689 12.1251L17.3022 12.13ZM14.6203 16.2578C14.6176 16.9942 15.2123 17.5933 15.9487 17.596C16.6851 17.5988 17.2842 17.004 17.2869 16.2676L15.9536 16.2627L14.6203 16.2578ZM6.10433 22.0313C6.10433 22.7677 6.70129 23.3646 7.43767 23.3646C8.17405 23.3646 8.771 22.7677 8.771 22.0313H7.43767H6.10433ZM7.43767 17.2501V15.9167C6.70129 15.9167 6.10433 16.5137 6.10433 17.2501H7.43767ZM24.4689 17.2501H25.8023C25.8023 16.5137 25.2053 15.9167 24.4689 15.9167V17.2501ZM23.1356 22.0313C23.1356 22.7677 23.7325 23.3646 24.4689 23.3646C25.2053 23.3646 25.8023 22.7677 25.8023 22.0313H24.4689H23.1356ZM20.1229 7.4534H18.7896C18.7896 9.01975 17.5198 10.2895 15.9535 10.2895V11.6229V12.9562C18.9926 12.9562 21.4563 10.4925 21.4563 7.4534H20.1229ZM15.9535 11.6229V10.2895C14.3871 10.2895 13.1174 9.01975 13.1174 7.4534H11.784H10.4507C10.4507 10.4925 12.9144 12.9562 15.9535 12.9562V11.6229ZM11.784 7.4534H13.1174C13.1174 5.88705 14.3871 4.61727 15.9535 4.61727V3.28394V1.9506C12.9144 1.9506 10.4507 4.41429 10.4507 7.4534H11.784ZM15.9535 3.28394V4.61727C17.5198 4.61727 18.7896 5.88705 18.7896 7.4534H20.1229H21.4563C21.4563 4.41429 18.9926 1.9506 15.9535 1.9506V3.28394ZM10.349 25.7315H9.01571C9.01571 26.6072 8.30583 27.317 7.43014 27.317V28.6504V29.9837C9.77859 29.9837 11.6824 28.0799 11.6824 25.7315H10.349ZM7.43014 28.6504V27.317C6.55445 27.317 5.84456 26.6072 5.84456 25.7315H4.51123H3.1779C3.1779 28.0799 5.08169 29.9837 7.43014 29.9837V28.6504ZM4.51123 25.7315H5.84456C5.84456 24.8558 6.55445 24.1459 7.43014 24.1459V22.8126V21.4792C5.08169 21.4792 3.1779 23.383 3.1779 25.7315H4.51123ZM7.43014 22.8126V24.1459C8.30583 24.1459 9.01571 24.8558 9.01571 25.7315H10.349H11.6824C11.6824 23.383 9.77859 21.4792 7.43014 21.4792V22.8126ZM27.3959 25.7315H26.0626C26.0626 26.6072 25.3527 27.317 24.477 27.317V28.6504V29.9837C26.8255 29.9837 28.7293 28.0799 28.7293 25.7315H27.3959ZM24.477 28.6504V27.317C23.6013 27.317 22.8914 26.6072 22.8914 25.7315H21.5581H20.2248C20.2248 28.0799 22.1286 29.9837 24.477 29.9837V28.6504ZM21.5581 25.7315H22.8914C22.8914 24.8558 23.6013 24.1459 24.477 24.1459V22.8126V21.4792C22.1286 21.4792 20.2248 23.383 20.2248 25.7315H21.5581ZM24.477 22.8126V24.1459C25.3527 24.1459 26.0626 24.8558 26.0626 25.7315H27.3959H28.7293C28.7293 23.383 26.8255 21.4792 24.477 21.4792V22.8126ZM15.9689 12.1251L14.6356 12.1201L14.6203 16.2578L15.9536 16.2627L17.2869 16.2676L17.3022 12.13L15.9689 12.1251ZM7.43767 22.0313H8.771V17.2501H7.43767H6.10433V22.0313H7.43767ZM7.43767 17.2501V18.5834H24.4689V17.2501V15.9167H7.43767V17.2501ZM24.4689 17.2501H23.1356V22.0313H24.4689H25.8023V17.2501H24.4689Z" fill="#545454"/>
</svg>
