<svg width="32" height="32" viewBox="0 0 32 32" fill="none" xmlns="http://www.w3.org/2000/svg">
<path d="M21.0024 26.8867C21.6927 26.8867 22.2524 27.4464 22.2524 28.1367C22.2524 28.8271 21.6927 29.3867 21.0024 29.3867H11C10.3096 29.3867 9.75 28.8271 9.75 28.1367C9.75 27.4464 10.3096 26.8867 11 26.8867H21.0024ZM26.25 2.65625C28.3211 2.65625 30 4.33518 30 6.40625V21.2812C30 23.3523 28.3211 25.0312 26.25 25.0312H5.78125C3.71018 25.0312 2.03125 23.3523 2.03125 21.2812V6.40625C2.03125 4.33518 3.71018 2.65625 5.78125 2.65625H26.25ZM5.78125 5.15625C5.09089 5.15625 4.53125 5.71589 4.53125 6.40625V21.2812C4.53125 21.9716 5.09089 22.5312 5.78125 22.5312H26.25C26.9404 22.5312 27.5 21.9716 27.5 21.2812V6.40625C27.5 5.71589 26.9404 5.15625 26.25 5.15625H5.78125ZM17.7816 9.0351C18.5206 9.02033 18.9908 9.48019 19.2256 9.76086C19.4595 10.0404 19.6926 10.4273 19.907 10.7774L20.6356 11.9669C20.8931 12.3874 21.0416 12.6272 21.1684 12.7955C21.2254 12.8712 21.2617 12.9097 21.2821 12.929C21.2993 12.9452 21.3058 12.9483 21.3065 12.9488C21.3073 12.9492 21.3134 12.9531 21.3361 12.9592C21.3632 12.9666 21.415 12.9774 21.5093 12.9865C21.7191 13.0067 22.0012 13.0081 22.4943 13.0081H24.0027C24.6931 13.0081 25.2527 13.5677 25.2527 14.2581C25.2527 14.9484 24.6931 15.508 24.0027 15.5081H22.3283C21.9441 15.5078 21.5819 15.5051 21.2693 15.4749C20.8854 15.4379 20.4836 15.3533 20.0847 15.1299C19.6858 14.9064 19.4038 14.608 19.1717 14.2999C18.9558 14.0133 18.7365 13.6527 18.5037 13.2726L17.875 12.2462L15.7138 16.5076C15.5359 16.8584 15.3405 17.2512 15.1345 17.5417C14.9212 17.8425 14.4915 18.331 13.7546 18.3748C13.0177 18.4186 12.5332 17.9843 12.2858 17.7109C12.0469 17.4468 11.8063 17.08 11.5881 16.7527L11.4055 16.4786C11.1436 16.0858 10.9932 15.8624 10.8662 15.7058C10.8092 15.6354 10.7733 15.5996 10.7531 15.5816C10.7361 15.5665 10.7297 15.5635 10.729 15.563C10.7283 15.5627 10.7223 15.559 10.7001 15.5533C10.674 15.5464 10.6243 15.5364 10.5341 15.528C10.3333 15.5093 10.064 15.5081 9.59189 15.5081H7.99774C7.30739 15.5081 6.74774 14.9484 6.74774 14.2581C6.74775 13.5677 7.30739 13.0081 7.99774 13.0081H9.7507C10.1185 13.0083 10.4658 13.0108 10.7661 13.0388C11.1352 13.0732 11.5216 13.1517 11.9086 13.3589C12.2956 13.566 12.5753 13.8439 12.8086 14.1319C13.0257 14.3998 13.2491 14.7371 13.4856 15.0919L13.5668 15.2138L15.7318 10.9449C15.9175 10.5788 16.1188 10.1745 16.3295 9.87711C16.5445 9.57378 16.9867 9.06665 17.7462 9.03616L17.7816 9.0351Z" fill="#545454"/>
</svg>
